<svg width="60" height="61" viewBox="0 0 60 61" fill="none" xmlns="http://www.w3.org/2000/svg">
<circle cx="30" cy="30.0698" r="30" fill="#EFF6F1"/>
<path fill-rule="evenodd" clip-rule="evenodd" d="M39.2828 30.3541C39.2828 25.227 34.9657 21.0698 29.6414 21.0698C24.3171 21.0698 20 25.227 20 30.3541C20 34.988 23.5251 38.829 28.1349 39.5261V33.0387H25.6863V30.3541H28.1349V28.3087C28.1349 25.9822 29.5747 24.6961 31.7767 24.6961C32.8317 24.6961 33.9353 24.8776 33.9353 24.8776V27.1627H32.7189C31.5219 27.1627 31.1475 27.8781 31.1475 28.6133V30.3541H33.8212L33.3942 33.0387H31.1479V39.527C35.7577 38.8302 39.2828 34.9893 39.2828 30.3541Z" fill="#274C5B"/>
</svg>
