<svg width="23" height="22" viewBox="0 0 23 22" fill="none" xmlns="http://www.w3.org/2000/svg">
<path d="M16.4868 2.28838C17.7196 2.29192 18.9009 2.76508 19.7726 3.60451C20.6443 4.44395 21.1357 5.58145 21.1393 6.76858V15.728C21.1357 16.9152 20.6443 18.0527 19.7726 18.8921C18.9009 19.7315 17.7196 20.2047 16.4868 20.2082H7.18278C5.94999 20.2047 4.76874 19.7315 3.89702 18.8921C3.0253 18.0527 2.53395 16.9152 2.53026 15.728V6.76858C2.53395 5.58145 3.0253 4.44395 3.89702 3.60451C4.76874 2.76508 5.94999 2.29192 7.18278 2.28838H16.4868ZM16.4868 0.496582H7.18278C3.60043 0.496582 0.669556 3.31891 0.669556 6.76858V15.728C0.669556 19.1777 3.60043 22 7.18278 22H16.4868C20.0692 22 23.0001 19.1777 23.0001 15.728V6.76858C23.0001 3.31891 20.0692 0.496582 16.4868 0.496582Z" fill="#274C5B"/>
<path d="M17.8826 6.76923C17.6066 6.76923 17.3368 6.69041 17.1072 6.54273C16.8777 6.39506 16.6988 6.18516 16.5932 5.93958C16.4876 5.694 16.4599 5.42377 16.5138 5.16307C16.5676 4.90237 16.7006 4.66289 16.8957 4.47494C17.0909 4.28698 17.3396 4.15898 17.6103 4.10712C17.8811 4.05527 18.1617 4.08188 18.4167 4.1836C18.6717 4.28532 18.8897 4.45758 19.0431 4.6786C19.1964 4.89961 19.2783 5.15945 19.2783 5.42526C19.2787 5.60186 19.2428 5.7768 19.1728 5.94003C19.1028 6.10326 19.0001 6.25156 18.8704 6.37644C18.7407 6.50131 18.5867 6.60029 18.4172 6.6677C18.2477 6.73511 18.066 6.76961 17.8826 6.76923ZM11.8349 7.66489C12.5711 7.66489 13.2907 7.87509 13.9027 8.26891C14.5148 8.66273 14.9918 9.22249 15.2735 9.87739C15.5553 10.5323 15.629 11.2529 15.4853 11.9482C15.3417 12.6434 14.9873 13.282 14.4667 13.7833C13.9462 14.2845 13.283 14.6259 12.5611 14.7642C11.8391 14.9024 11.0907 14.8315 10.4106 14.5602C9.73054 14.2889 9.14926 13.8296 8.74029 13.2402C8.33132 12.6508 8.11303 11.9578 8.11303 11.249C8.11409 10.2987 8.50655 9.38768 9.20432 8.71576C9.90209 8.04384 10.8482 7.6659 11.8349 7.66489ZM11.8349 5.87309C10.7308 5.87309 9.65146 6.18838 8.73341 6.77909C7.81535 7.3698 7.09981 8.20939 6.67727 9.1917C6.25474 10.174 6.14418 11.2549 6.35959 12.2977C6.575 13.3406 7.10669 14.2984 7.88743 15.0503C8.66818 15.8021 9.66291 16.3141 10.7458 16.5215C11.8288 16.729 12.9512 16.6225 13.9713 16.2156C14.9914 15.8087 15.8633 15.1197 16.4767 14.2356C17.0902 13.3516 17.4176 12.3122 17.4176 11.249C17.4176 9.82319 16.8294 8.45582 15.7825 7.44765C14.7355 6.43948 13.3156 5.87309 11.8349 5.87309Z" fill="#274C5B"/>
</svg>
