<svg width="60" height="61" viewBox="0 0 60 61" fill="none" xmlns="http://www.w3.org/2000/svg">
<circle cx="30" cy="30.0698" r="30" fill="#EFF6F1"/>
<path d="M33.6585 22.6171C34.7231 22.6201 35.7431 23.0287 36.4958 23.7536C37.2486 24.4785 37.6729 25.4607 37.6761 26.4858V34.2225C37.6729 35.2476 37.2486 36.2298 36.4958 36.9547C35.7431 37.6796 34.7231 38.0882 33.6585 38.0912H25.6243C24.5598 38.0882 23.5397 37.6796 22.787 36.9547C22.0342 36.2298 21.6099 35.2476 21.6068 34.2225V26.4858C21.6099 25.4607 22.0342 24.4785 22.787 23.7536C23.5397 23.0287 24.5598 22.6201 25.6243 22.6171H33.6585ZM33.6585 21.0698H25.6243C22.5309 21.0698 20 23.507 20 26.4858V34.2225C20 37.2013 22.5309 39.6385 25.6243 39.6385H33.6585C36.752 39.6385 39.2828 37.2013 39.2828 34.2225V26.4858C39.2828 23.507 36.752 21.0698 33.6585 21.0698Z" fill="#274C5B"/>
<path d="M34.8638 26.4866C34.6254 26.4866 34.3924 26.4185 34.1942 26.291C33.996 26.1635 33.8416 25.9822 33.7504 25.7702C33.6591 25.5581 33.6353 25.3248 33.6818 25.0997C33.7283 24.8745 33.8431 24.6677 34.0116 24.5054C34.1802 24.3431 34.3949 24.2326 34.6287 24.1878C34.8625 24.143 35.1048 24.166 35.325 24.2539C35.5452 24.3417 35.7334 24.4905 35.8659 24.6813C35.9983 24.8722 36.069 25.0965 36.069 25.3261C36.0693 25.4786 36.0384 25.6296 35.9779 25.7706C35.9175 25.9115 35.8287 26.0396 35.7167 26.1474C35.6048 26.2553 35.4718 26.3407 35.3254 26.3989C35.179 26.4571 35.0222 26.4869 34.8638 26.4866ZM29.6415 27.26C30.2772 27.26 30.8986 27.4415 31.4271 27.7816C31.9556 28.1217 32.3676 28.605 32.6108 29.1706C32.8541 29.7361 32.9177 30.3584 32.7937 30.9587C32.6697 31.5591 32.3636 32.1105 31.9141 32.5434C31.4646 32.9762 30.892 33.271 30.2685 33.3904C29.6451 33.5098 28.9989 33.4485 28.4116 33.2143C27.8243 32.98 27.3224 32.5833 26.9692 32.0744C26.6161 31.5654 26.4276 30.9671 26.4276 30.3549C26.4285 29.5344 26.7674 28.7477 27.3699 28.1675C27.9724 27.5873 28.7894 27.2609 29.6415 27.26ZM29.6415 25.7128C28.6881 25.7128 27.756 25.985 26.9633 26.4951C26.1705 27.0052 25.5526 27.7302 25.1878 28.5785C24.8229 29.4267 24.7274 30.3601 24.9134 31.2606C25.0994 32.1611 25.5586 32.9882 26.2328 33.6374C26.9069 34.2867 27.7659 34.7288 28.701 34.9079C29.6362 35.087 30.6054 34.9951 31.4863 34.6437C32.3672 34.2924 33.1201 33.6974 33.6498 32.934C34.1795 32.1706 34.4622 31.2731 34.4622 30.3549C34.4622 29.1238 33.9543 27.943 33.0503 27.0724C32.1462 26.2019 30.92 25.7128 29.6415 25.7128Z" fill="#274C5B"/>
</svg>
