<svg width="60" height="61" viewBox="0 0 60 61" fill="none" xmlns="http://www.w3.org/2000/svg">
<circle cx="30" cy="30.0698" r="30" fill="#EFF6F1"/>
<path d="M29.7966 20.0698C24.3866 20.0698 20 24.4545 20 29.8621C20 33.8708 22.4142 37.3156 25.8649 38.8325C25.8386 38.1505 25.8605 37.3287 26.0354 36.5855C26.2235 35.7899 27.295 31.2479 27.295 31.2479C27.295 31.2479 26.9801 30.6227 26.9801 29.7003C26.9801 28.249 27.8198 27.1648 28.8695 27.1648C29.7617 27.1648 30.1903 27.8337 30.1903 28.6337C30.1903 29.5299 29.6173 30.8675 29.3243 32.1091C29.0794 33.1495 29.8447 33.9932 30.8725 33.9932C32.7269 33.9932 33.9777 31.6107 33.9777 28.7867C33.9777 26.6403 32.5301 25.0359 29.9016 25.0359C26.932 25.0359 25.0776 27.2523 25.0776 29.7266C25.0776 30.579 25.3313 31.1823 25.7249 31.6457C25.9042 31.8599 25.9305 31.9473 25.8649 32.1921C25.8168 32.3714 25.7118 32.8041 25.6637 32.979C25.5981 33.2282 25.3969 33.3156 25.1738 33.2238C23.8049 32.6643 23.1664 31.1692 23.1664 29.4818C23.1664 26.7015 25.515 23.366 30.1684 23.366C33.9077 23.366 36.37 26.072 36.37 28.9747C36.37 32.8173 34.2314 35.685 31.0824 35.685C30.0241 35.685 29.0313 35.1123 28.6901 34.4653C28.6901 34.4653 28.1216 36.721 27.9991 37.1582C27.7936 37.9145 27.3868 38.6664 27.0151 39.2565C27.9169 39.5225 28.8521 39.6579 29.7923 39.6587C35.2023 39.6587 39.5889 35.2741 39.5889 29.8665C39.5889 24.4589 35.2067 20.0698 29.7966 20.0698Z" fill="#274C5B"/>
</svg>
