<svg width="60" height="61" viewBox="0 0 60 61" fill="none" xmlns="http://www.w3.org/2000/svg">
<circle cx="30" cy="30.0698" r="30" fill="#EFF6F1"/>
<path d="M40.6602 24.0282C39.8852 24.365 39.0652 24.5868 38.2261 24.6868C39.1079 24.1704 39.7711 23.3501 40.0912 22.3797C39.2575 22.8672 38.3469 23.2093 37.3984 23.3912C36.9991 22.9727 36.5187 22.6397 35.9866 22.4125C35.4546 22.1854 34.8818 22.0688 34.3033 22.0698C31.9609 22.0698 30.0654 23.9379 30.0654 26.2406C30.0637 26.5609 30.1004 26.8803 30.1747 27.1918C28.4951 27.1131 26.8504 26.6846 25.3458 25.9338C23.8413 25.183 22.51 24.1264 21.4372 22.8317C21.0608 23.4662 20.8618 24.1901 20.8608 24.9278C20.8608 26.374 21.6154 27.6524 22.7547 28.4013C22.0797 28.3853 21.4185 28.2066 20.8273 27.8805V27.9322C20.8273 29.9551 22.2907 31.6381 24.2276 32.0211C23.8634 32.1182 23.488 32.1674 23.1111 32.1675C22.8436 32.168 22.5767 32.142 22.3144 32.09C22.8528 33.7471 24.42 34.9523 26.2764 34.9867C24.7679 36.1493 22.9159 36.7776 21.0115 36.773C20.6734 36.7725 20.3357 36.7524 20 36.7127C21.9374 37.9498 24.1895 38.6042 26.4882 38.598C34.2943 38.598 38.5589 32.2407 38.5589 26.727C38.5589 26.5462 38.5541 26.3654 38.5455 26.189C39.3733 25.6002 40.0893 24.8685 40.6602 24.0282Z" fill="#274C5B"/>
</svg>
