<svg width="25" height="20" viewBox="0 0 25 20" fill="none" xmlns="http://www.w3.org/2000/svg">
<path d="M24.256 2.94605C23.3585 3.33601 22.4089 3.59293 21.4373 3.70868C22.4584 3.11073 23.2263 2.16078 23.597 1.03699C22.6316 1.60153 21.5771 1.99764 20.4787 2.20835C20.0162 1.72362 19.46 1.33801 18.8438 1.07495C18.2276 0.811885 17.5644 0.676871 16.8944 0.678109C14.1818 0.678109 11.9867 2.84138 11.9867 5.50808C11.9847 5.879 12.0273 6.24883 12.1133 6.60965C10.1682 6.51846 8.26352 6.02227 6.52117 5.15281C4.77882 4.28335 3.23714 3.05978 1.99476 1.56036C1.55891 2.29514 1.3284 3.13349 1.32734 3.98781C1.32734 5.6626 2.20112 7.14299 3.52052 8.01029C2.73881 7.99174 1.97313 7.78484 1.28846 7.40717V7.46698C1.28846 9.80969 2.98319 11.7586 5.22621 12.2022C4.80441 12.3147 4.36976 12.3717 3.93323 12.3717C3.62349 12.3723 3.31444 12.3422 3.0106 12.282C3.63416 14.201 5.44902 15.5967 7.59882 15.6366C5.85195 16.9828 3.70724 17.7105 1.5018 17.7051C1.11033 17.7045 0.719217 17.6812 0.330444 17.6353C2.57405 19.068 5.18207 19.8258 7.84406 19.8185C16.8839 19.8185 21.8226 12.4565 21.8226 6.07132C21.8226 5.86197 21.8171 5.65263 21.8071 5.44826C22.7657 4.76641 23.5949 3.91908 24.256 2.94605Z" fill="#274C5B"/>
</svg>
